<svg width="92" height="88" viewBox="0 0 92 88" fill="none" xmlns="http://www.w3.org/2000/svg">
<path d="M67.1111 12H18.8889C15.0843 12 12 15.0843 12 18.8889V67.1111C12 70.9157 15.0843 74 18.8889 74H67.1111C70.9157 74 74 70.9157 74 67.1111V18.8889C74 15.0843 70.9157 12 67.1111 12Z" stroke="#5F5F5F" stroke-width="2" stroke-linecap="round" stroke-linejoin="round"/>
<path d="M12 32.6667H74" stroke="#5F5F5F" stroke-width="2" stroke-linecap="round" stroke-linejoin="round"/>
<path d="M32.6665 74V32.6667" stroke="#5F5F5F" stroke-width="2" stroke-linecap="round" stroke-linejoin="round"/>
<path d="M14.1148 23.0779C10.0758 23.0779 6.51382 20.2119 5.64682 16.2629C5.14882 13.9989 5.56082 11.6759 6.81082 9.7229C8.05882 7.7699 9.99484 6.41994 12.2578 5.92194C12.8728 5.78494 13.5038 5.71692 14.1308 5.71692C18.1678 5.71692 21.7308 8.58392 22.5988 12.5319C23.0978 14.7959 22.6838 17.1189 21.4348 19.0719C20.1878 21.0249 18.2528 22.3759 15.9878 22.8739C15.3708 23.0099 14.7418 23.0779 14.1148 23.0779ZM14.1318 7.08795C13.6048 7.08795 13.0718 7.14595 12.5528 7.25995C10.6468 7.67995 9.01779 8.81694 7.96579 10.4609C6.91379 12.1049 6.56778 14.0619 6.98678 15.9689C7.71778 19.2939 10.7158 21.7079 14.1158 21.7079C14.6428 21.7079 15.1738 21.6489 15.6938 21.5349C17.6008 21.1149 19.2298 19.9779 20.2828 18.3339C21.3338 16.6889 21.6808 14.7339 21.2618 12.8269C20.5288 9.5009 17.5298 7.08795 14.1318 7.08795Z" fill="#FFC107"/>
<path d="M14.3848 28.793C7.68782 28.793 1.78185 24.04 0.341853 17.49C-0.485147 13.736 0.199846 9.88398 2.27185 6.64398C4.34285 3.40598 7.54984 1.16597 11.3058 0.339966C12.3278 0.114966 13.3738 0 14.4108 0C21.1068 0 27.0129 4.75502 28.4539 11.304C29.2809 15.059 28.5968 18.91 26.5248 22.15C24.4548 25.389 21.2468 27.628 17.4908 28.454C16.4688 28.68 15.4228 28.793 14.3848 28.793ZM14.4108 1.37201C13.4728 1.37201 12.5258 1.47599 11.5988 1.67999C8.20181 2.42699 5.29884 4.45297 3.42584 7.38397C1.55084 10.315 0.931866 13.799 1.67987 17.197C2.98387 23.122 8.32585 27.423 14.3838 27.423C15.3228 27.423 16.2698 27.32 17.1968 27.116C20.5938 26.369 23.4969 24.343 25.3699 21.413C27.2429 18.482 27.8629 14.997 27.1149 11.6C25.8109 5.67298 20.4698 1.37201 14.4108 1.37201Z" fill="#5F5F5F"/>
<path d="M83.051 23.102C85.2883 23.102 87.102 21.2883 87.102 19.051C87.102 16.8137 85.2883 15 83.051 15C80.8137 15 79 16.8137 79 19.051C79 21.2883 80.8137 23.102 83.051 23.102Z" fill="#FFC107"/>
<path d="M16.343 87.686C17.637 87.686 18.6859 86.637 18.6859 85.343C18.6859 84.049 17.637 83 16.343 83C15.049 83 14 84.049 14 85.343C14 86.637 15.049 87.686 16.343 87.686Z" fill="#5F5F5F"/>
<path d="M85.395 84.79C88.9269 84.79 91.79 81.9268 91.79 78.395C91.79 74.8631 88.9269 72 85.395 72C81.8632 72 79 74.8631 79 78.395C79 81.9268 81.8632 84.79 85.395 84.79Z" fill="#FBAD18"/>
</svg>
