<svg width="94" height="94" viewBox="0 0 94 94" fill="none" xmlns="http://www.w3.org/2000/svg">
<path d="M77.0974 32.831C75.5977 30.9272 74.0471 28.9587 70.8382 28.8916C67.6287 28.8252 65.9994 30.728 64.4216 32.5689C62.9163 34.3264 61.4937 35.9852 58.7146 35.9285C55.9391 35.8711 54.587 34.1542 53.1577 32.3367C51.6581 30.4328 50.1089 28.4643 46.9021 28.398C43.6947 28.331 42.064 30.2351 40.487 32.0739C38.9823 33.8322 37.559 35.4917 34.7835 35.4343C32.0065 35.3769 30.6551 33.6593 29.2251 31.841C27.7255 29.9372 26.1756 27.968 22.9696 27.9024C19.7635 27.8354 18.135 29.7389 16.5579 31.5791C15.1453 33.2324 13.7893 34.7802 11.326 34.9124L11.3071 35.8244C14.1946 35.6981 15.7563 33.9184 17.2501 32.1734C18.7533 30.4151 20.1746 28.7548 22.9493 28.8129C25.7248 28.8703 27.0776 30.5879 28.5062 32.4047C30.0072 34.31 31.5565 36.2785 34.7639 36.3442C37.9714 36.4112 39.6021 34.507 41.1777 32.6668C42.6837 30.91 44.1057 29.2504 46.8812 29.3078C49.6588 29.366 51.0102 31.0836 52.4416 32.9004C53.9398 34.8042 55.4904 36.7727 58.6965 36.8397C61.906 36.9061 63.5346 35.0026 65.1124 33.1617C66.6184 31.4049 68.0411 29.7447 70.8187 29.8014C73.597 29.8603 74.9485 31.5765 76.3813 33.3948C77.8816 35.2993 79.4315 37.2671 82.6418 37.3342L82.6592 36.4222C79.8823 36.3662 78.5302 34.6479 77.0974 32.831Z" fill="#FFC107"/>
<path d="M76.8837 43.1497C75.3848 41.2466 73.8342 39.2781 70.6247 39.2103C67.4158 39.1446 65.7865 41.0474 64.208 42.8876C62.702 44.6458 61.28 46.3053 58.5017 46.2479C55.7269 46.1912 54.374 44.4736 52.9441 42.6567C51.4444 40.7529 49.8945 38.7837 46.6878 38.7174C43.4803 38.6503 41.8496 40.5545 40.2733 42.394C38.768 44.1516 37.3446 45.811 34.5691 45.7536C31.7936 45.6963 30.4415 43.9779 29.0122 42.1618C27.5126 40.2566 25.9613 38.2874 22.7559 38.2225C19.5499 38.1555 17.9199 40.0575 16.3443 41.8992C14.9302 43.5511 13.575 45.0995 11.1117 45.2318L11.0935 46.1445C13.9817 46.0189 15.5427 44.2385 17.0357 42.4927C18.5396 40.7351 19.9616 39.0756 22.735 39.1323C25.5105 39.1897 26.864 40.908 28.2933 42.7255C29.7929 44.6294 31.3421 46.5978 34.5495 46.6649C37.7577 46.7312 39.3884 44.8271 40.9633 42.9861C42.4694 41.2293 43.8913 39.5698 46.6675 39.6279C49.4444 39.6853 50.7952 41.4022 52.2266 43.219C53.7248 45.1228 55.2768 47.0928 58.4821 47.1591C61.6903 47.2255 63.321 45.3227 64.8994 43.4825C66.4055 41.7243 67.8274 40.0648 70.6058 40.1222C73.3827 40.1797 74.7348 41.8966 76.1662 43.7134C77.6673 45.6187 79.2179 47.5872 82.4274 47.6536L82.4456 46.7423C79.6686 46.6849 78.3172 44.9687 76.8837 43.1497Z" fill="#FFC107"/>
<path d="M76.6581 54.1111C75.1585 52.2073 73.6065 50.2373 70.399 50.1717C67.1894 50.1053 65.5594 52.0088 63.9831 53.8497C62.4757 55.6051 61.053 57.2653 58.2747 57.2078C55.4992 57.1504 54.1463 55.4328 52.7177 53.616C51.2181 51.7122 49.6689 49.7437 46.4615 49.6767C43.2533 49.6103 41.624 51.5145 40.0456 53.3547C38.5403 55.1108 37.1183 56.7717 34.3435 56.7151C31.5651 56.6562 30.2144 54.9393 28.783 53.1225C27.2841 51.218 25.7342 49.2502 22.5282 49.1832C19.3236 49.1162 17.6943 51.0204 16.1165 52.8598C14.7032 54.5125 13.3472 56.0588 10.8846 56.1932L10.8658 57.1037C13.7546 56.9803 15.3156 55.1985 16.8094 53.4534C18.3119 51.6944 19.7338 50.0363 22.51 50.0945C25.2841 50.1518 26.6362 51.8687 28.0669 53.6862C29.5658 55.5907 31.1158 57.5586 34.3211 57.6263C37.5293 57.6912 39.1599 55.7884 40.737 53.9482C42.2416 52.1914 43.665 50.5319 46.4412 50.5886C49.2167 50.646 50.5681 52.3636 51.9988 54.1811C53.4984 56.0864 55.0476 58.0535 58.253 58.1198C61.4618 58.1868 63.0932 56.2834 64.671 54.4425C66.177 52.6857 67.599 51.0261 70.3766 51.0829C73.1549 51.1418 74.507 52.8586 75.9384 54.6755C77.4402 56.5801 78.9908 58.5486 82.2004 58.615L82.2185 57.7037C79.443 57.6463 78.0902 55.9287 76.6581 54.1111Z" fill="#FFC107"/>
</svg>
