<svg width="62" height="15" viewBox="0 0 62 15" fill="none" xmlns="http://www.w3.org/2000/svg">
    <path d="M61.291 13.146L61.174 13.208L50.947 7.79004L40.722 13.208L30.496 7.79004L20.269 13.208L10.045 7.79004L0 13.113V14.166L10.045 8.84204L20.269 14.262L30.496 8.84204L40.722 14.262L50.947 8.84204L61.174 14.262L61.291 14.2V13.146Z" fill="#FFC107"/>
    <path d="M61.291 5.35599L61.174 5.41901L50.947 0L40.722 5.41901L30.496 0L20.269 5.41901L10.045 0L0 5.32401V6.37698L10.045 1.05399L20.269 6.47198L30.496 1.05399L40.722 6.47198L50.947 1.05399L61.174 6.47198L61.291 6.41V5.35599Z" fill="#FFC107"/>
</svg>