<svg width="15" height="51" viewBox="0 0 15 51" fill="none" xmlns="http://www.w3.org/2000/svg" class="brush-line">
    <path d="M8.38733 0.490985L13.8923 7.39013L8.19287 14.5329L13.8923 21.6757L8.19287 28.8184L13.8923 35.9612L8.19287 43.1027L13.7925 50.12H14.9L9.30045 43.1027L14.9998 35.9612L9.30045 28.8184L14.9998 21.6757L9.30045 14.5329L14.9998 7.39013L9.10467 0L8.38733 0.490985Z" fill="#FFC107"/>
    <path d="M0.195784 0.490985L5.69942 7.39013L0 14.5329L5.69942 21.6757L0 28.8184L5.69942 35.9612L0 43.1027L5.59954 50.12H6.70712L1.10758 43.1027L6.80696 35.9612L1.10758 28.8184L6.80696 21.6757L1.10758 14.5329L6.80696 7.39013L0.911799 0L0.195784 0.490985Z" fill="#FFC107"/>
</svg>