<svg width="76" height="90" viewBox="0 0 76 90" fill="none" xmlns="http://www.w3.org/2000/svg">
<path d="M64.9999 65C58.9331 65 54 60.0668 54 54C54 47.9332 58.9331 43 64.9999 43C71.0667 43 75.9999 47.9358 75.9999 54C75.9999 60.0641 71.0641 65 64.9999 65ZM64.9999 46.6657C60.9545 46.6657 57.6658 49.9546 57.6658 54C57.6658 58.0454 60.9545 61.3341 64.9999 61.3341C69.0454 61.3341 72.3341 58.0454 72.3341 54C72.3341 49.9546 69.0454 46.6657 64.9999 46.6657Z" fill="#FBAD18"/>
<path d="M2.34299 58.686C3.63699 58.686 4.686 57.637 4.686 56.343C4.686 55.049 3.63699 54 2.34299 54C1.04898 54 0 55.049 0 56.343C0 57.637 1.04898 58.686 2.34299 58.686Z" fill="#ACB0B5"/>
<path d="M42.388 4.776C43.7069 4.776 44.776 3.70686 44.776 2.388C44.776 1.06914 43.7069 0 42.388 0C41.0691 0 40 1.06914 40 2.388C40 3.70686 41.0691 4.776 42.388 4.776Z" fill="#FBAD18"/>
<path d="M3.51999 12.04C5.46403 12.04 7.04001 10.464 7.04001 8.51999C7.04001 6.57595 5.46403 5 3.51999 5C1.57595 5 0 6.57595 0 8.51999C0 10.464 1.57595 12.04 3.51999 12.04Z" fill="#FBAD18"/>
<path d="M32.111 89.222C34.3814 89.222 36.222 87.3814 36.222 85.111C36.222 82.8405 34.3814 81 32.111 81C29.8405 81 28 82.8405 28 85.111C28 87.3814 29.8405 89.222 32.111 89.222Z" fill="#FBAD18"/>
<path d="M34 64.7L55.7 43L65 52.3L43.3 74L34 64.7Z" stroke="#5F5F5F" stroke-width="2" stroke-linecap="round" stroke-linejoin="round"/>
<path d="M52.6 46.1L47.95 22.85L3 12L13.85 56.95L37.1 61.6L52.6 46.1Z" stroke="#5F5F5F" stroke-width="2" stroke-linecap="round" stroke-linejoin="round"/>
<path d="M3 12L26.5166 35.5166" stroke="#5F5F5F" stroke-width="2" stroke-linecap="round" stroke-linejoin="round"/>
<path d="M30.9002 46.0998C34.3244 46.0998 37.1002 43.324 37.1002 39.8998C37.1002 36.4757 34.3244 33.6998 30.9002 33.6998C27.476 33.6998 24.7002 36.4757 24.7002 39.8998C24.7002 43.324 27.476 46.0998 30.9002 46.0998Z" stroke="#5F5F5F" stroke-width="2" stroke-linecap="round" stroke-linejoin="round"/>
</svg>
