<svg width="19" height="17" viewBox="0 0 19 17" fill="none" xmlns="http://www.w3.org/2000/svg" class="circle {{circlePosition}}">
    <path d="M8.993 16.7273C4.80595 16.7273 1.11441 13.9724 0.213997 10.1751C-0.303465 7.99809 0.124792 5.76506 1.41982 3.88711C2.71416 2.0098 4.72085 0.712208 7.06796 0.233652C7.70758 0.103195 8.36094 0.036377 9.01017 0.036377C13.1965 0.036377 16.8881 2.79252 17.7892 6.58915C18.3066 8.76556 17.8784 10.9986 16.5833 12.8766C15.289 14.7551 13.283 16.0527 10.9359 16.5306C10.2963 16.6605 9.64223 16.7273 8.993 16.7273ZM9.01017 0.90887C8.4282 0.90887 7.84347 0.96869 7.26974 1.08451C5.16763 1.51343 3.37164 2.67546 2.2125 4.3574C1.05336 6.03871 0.669685 8.03756 1.13293 9.98742C1.93932 13.3876 5.24449 15.8548 8.993 15.8548C9.57497 15.8548 10.1597 15.7962 10.7341 15.6792C12.8362 15.2502 14.6316 14.0895 15.7907 12.4069C16.9499 10.725 17.3335 8.7261 16.8702 6.77625C16.0632 3.37608 12.758 0.90887 9.01017 0.90887Z" fill="#FFC107"/>
    <path d="M8.89287 9.87164C10.3627 9.87164 11.5543 8.76674 11.5543 7.40378C11.5543 6.04081 10.3627 4.93591 8.89287 4.93591C7.423 4.93591 6.23145 6.04081 6.23145 7.40378C6.23145 8.76674 7.423 9.87164 8.89287 9.87164Z" fill="#5F5F5F"/>
</svg>