<svg width="84" height="80" viewBox="0 0 84 80" fill="none" xmlns="http://www.w3.org/2000/svg">
<path d="M66.3501 17.6798C70.222 19.1729 74.5711 17.2446 76.0642 13.3727C77.5573 9.5009 75.629 5.15171 71.7572 3.6586C67.8853 2.16549 63.5362 4.09386 62.043 7.96569C60.5499 11.8375 62.4783 16.1866 66.3501 17.6798Z" fill="#FFC107"/>
<path d="M5.83887 8.2437C7.72053 8.96933 9.83415 8.0322 10.5598 6.15054C11.2854 4.26888 10.3483 2.15523 8.46662 1.4296C6.58496 0.703965 4.47132 1.64113 3.74569 3.52279C3.02005 5.40445 3.95721 7.51807 5.83887 8.2437Z" fill="#FFC107"/>
<path d="M4.32513 72.3096C6.69477 73.2234 9.35654 72.0432 10.2704 69.6736C11.1842 67.3039 10.004 64.6422 7.63436 63.7283C5.26472 62.8145 2.60295 63.9947 1.68914 66.3644C0.775321 68.734 1.95549 71.3958 4.32513 72.3096Z" fill="#5F5F5F"/>
<path d="M67.0317 76.1973C62.8043 74.5671 60.2354 70.1305 60.9206 65.6462C61.3122 63.0748 62.6819 60.8105 64.7766 59.2707C66.8723 57.7304 69.4427 57.099 72.0122 57.4914C72.7134 57.5987 73.4002 57.78 74.0563 58.033C78.2815 59.6624 80.8517 64.1002 80.1674 68.5841C79.7758 71.1555 78.406 73.4198 76.3106 74.9593C74.2147 76.5003 71.6457 77.1322 69.0757 76.7388C68.376 76.6321 67.6877 76.4503 67.0317 76.1973ZM73.6907 58.9831C73.1033 58.7566 72.4879 58.594 71.8598 58.4975C69.5578 58.1461 67.2565 58.711 65.3801 60.0915C63.5041 61.4706 62.2784 63.4975 61.9268 65.8002C61.314 69.816 63.614 73.7883 67.3986 75.2477C67.9854 75.474 68.6012 75.6375 69.2295 75.7333C71.5313 76.0854 73.8319 75.5203 75.7081 74.1405C77.5843 72.7607 78.811 70.7333 79.1617 68.431C79.7747 64.4146 77.4733 60.4418 73.6907 58.9831Z" fill="#5F5F5F"/>
<path d="M72.3587 68.2843C73.8424 68.8565 75.5091 68.1175 76.0813 66.6337C76.6535 65.1499 75.9145 63.4833 74.4308 62.9111C72.947 62.3389 71.2803 63.0778 70.7081 64.5616C70.1359 66.0454 70.8749 67.7121 72.3587 68.2843Z" fill="#FFC107"/>
<path d="M43.8748 69H36.1248C34.3165 69 32.2498 67.45 32.2498 64.35V58.925C32.2498 56.3416 30.9582 54.0166 28.8915 52.2083C24.2415 48.5916 21.9165 43.425 21.9165 37.7416C22.1748 27.925 30.1832 20.175 39.7415 19.9166C44.6498 19.9166 49.2998 21.725 52.6582 25.0833C56.0165 28.4416 58.0832 33.0916 58.0832 38C58.0832 43.425 55.7582 48.5916 51.3665 51.95C49.0415 53.7583 47.7498 56.6 47.7498 59.1833V65.125C47.7498 67.1916 45.9415 69 43.8748 69ZM39.9998 22.5C31.7332 22.5 24.7582 29.475 24.4998 37.7416C24.4998 42.65 26.5665 47.3 30.4415 50.1416C33.2832 52.4666 34.8332 55.5666 34.8332 58.925V64.35C34.8332 64.8666 34.8332 66.4166 36.1248 66.4166H43.8748C44.6498 66.4166 45.1665 65.8999 45.1665 65.125V59.1833C45.1665 55.825 46.9748 52.2083 49.8165 49.8833C53.4332 47.0416 55.4998 42.65 55.4998 38C55.4998 33.8666 53.9498 29.9916 50.8498 26.8916C48.0082 24.05 44.1332 22.5 39.9998 22.5Z" fill="#5F5F5F"/>
<path d="M46.4583 61.25H33.5417C32.7667 61.25 32.25 60.7333 32.25 59.9583C32.25 59.1833 32.7667 58.6666 33.5417 58.6666H46.4583C47.2333 58.6666 47.75 59.1833 47.75 59.9583C47.75 60.7333 47.2333 61.25 46.4583 61.25Z" fill="#5F5F5F"/>
<path d="M40.0002 14.75C39.2252 14.75 38.7085 14.2333 38.7085 13.4583V8.29167C38.7085 7.51667 39.2252 7 40.0002 7C40.7752 7 41.2918 7.51667 41.2918 8.29167V13.4583C41.2918 14.2333 40.7752 14.75 40.0002 14.75Z" fill="#5F5F5F"/>
<path d="M57.3085 21.9833C57.0502 21.9833 56.5335 21.9833 56.2752 21.725C55.7585 21.2083 55.7585 20.4333 56.2752 19.9166L59.8919 16.3C60.4085 15.7833 61.1835 15.7833 61.7002 16.3C62.2169 16.8166 62.2169 17.5916 61.7002 18.1083L58.0835 21.725C58.0835 21.725 57.5669 21.9833 57.3085 21.9833Z" fill="#5F5F5F"/>
<path d="M69.7083 39.2917H64.5417C63.7667 39.2917 63.25 38.775 63.25 38C63.25 37.225 63.7667 36.7084 64.5417 36.7084H69.7083C70.4833 36.7084 71 37.225 71 38C71 38.775 70.4833 39.2917 69.7083 39.2917Z" fill="#5F5F5F"/>
<path d="M60.9252 60.2166C60.6669 60.2166 60.1502 60.2166 59.8919 59.9583L56.2752 56.3416C55.7585 55.8249 55.7585 55.0499 56.2752 54.5333C56.7919 54.0166 57.5669 54.0166 58.0835 54.5333L61.7002 58.1499C62.2169 58.6666 62.2169 59.4416 61.7002 59.9583C61.7002 60.2166 61.4419 60.2166 60.9252 60.2166Z" fill="#5F5F5F"/>
<path d="M19.0751 60.2166C18.8168 60.2166 18.3001 60.2166 18.0418 59.9583C17.5251 59.4416 17.5251 58.6666 18.0418 58.1499L21.6585 54.5333C22.1751 54.0166 22.9501 54.0166 23.4668 54.5333C23.9835 55.0499 23.9835 55.8249 23.4668 56.3416L19.8501 59.9583C19.5918 60.2166 19.3335 60.2166 19.0751 60.2166Z" fill="#5F5F5F"/>
<path d="M15.4583 39.2917H10.2917C9.51667 39.2917 9 38.775 9 38C9 37.225 9.51667 36.7084 10.2917 36.7084H15.4583C16.2333 36.7084 16.75 37.225 16.75 38C16.75 38.775 16.2333 39.2917 15.4583 39.2917Z" fill="#5F5F5F"/>
<path d="M22.6918 21.9833C22.4335 21.9833 21.9168 21.9833 21.6585 21.725L18.0418 17.85C17.5251 17.3333 17.5251 16.5583 18.0418 16.0417C18.5585 15.525 19.3335 15.525 19.8501 16.0417L23.4668 19.6583C23.9835 20.175 23.9835 20.95 23.4668 21.4667C23.2085 21.725 22.9501 21.9833 22.6918 21.9833Z" fill="#5F5F5F"/>
<path d="M50.3335 39.2917C49.5585 39.2917 49.0418 38.775 49.0418 38C49.0418 33.0917 44.9085 28.9583 40.0002 28.9583C39.2252 28.9583 38.7085 28.4417 38.7085 27.6667C38.7085 26.8917 39.2252 26.375 40.0002 26.375C46.4585 26.375 51.6252 31.5417 51.6252 38C51.6252 38.775 51.1085 39.2917 50.3335 39.2917Z" fill="#5F5F5F"/>
</svg>
