<svg width="80" height="74" viewBox="0 0 80 74" fill="none" xmlns="http://www.w3.org/2000/svg">
<path d="M32 40.4546C36.6693 40.4546 40.4545 36.6693 40.4545 32C40.4545 27.3307 36.6693 23.5455 32 23.5455C27.3306 23.5455 23.5454 27.3307 23.5454 32C23.5454 36.6693 27.3306 40.4546 32 40.4546Z" stroke="#5F5F5F" stroke-width="2" stroke-linecap="round" stroke-linejoin="round"/>
<path d="M52.8545 40.4545C52.4794 41.3046 52.3675 42.2475 52.5333 43.1617C52.699 44.0759 53.1348 44.9194 53.7845 45.5836L53.9536 45.7527C54.4777 46.2762 54.8934 46.8978 55.1771 47.5821C55.4607 48.2663 55.6067 48.9997 55.6067 49.7405C55.6067 50.4812 55.4607 51.2146 55.1771 51.8988C54.8934 52.5831 54.4777 53.2047 53.9536 53.7282C53.4302 54.2522 52.8085 54.668 52.1243 54.9516C51.4401 55.2353 50.7066 55.3813 49.9659 55.3813C49.2252 55.3813 48.4918 55.2353 47.8075 54.9516C47.1233 54.668 46.5016 54.2522 45.9782 53.7282L45.8091 53.5591C45.1449 52.9094 44.3013 52.4736 43.3871 52.3078C42.4729 52.142 41.53 52.2539 40.68 52.6291C39.8465 52.9863 39.1356 53.5795 38.6349 54.3356C38.1341 55.0917 37.8654 55.9777 37.8618 56.8845V57.3636C37.8618 58.8585 37.268 60.2921 36.211 61.3491C35.1539 62.4062 33.7203 63 32.2255 63C30.7306 63 29.297 62.4062 28.2399 61.3491C27.1829 60.2921 26.5891 58.8585 26.5891 57.3636V57.11C26.5673 56.1772 26.2653 55.2725 25.7225 54.5136C25.1797 53.7547 24.4212 53.1766 23.5455 52.8545C22.6954 52.4794 21.7525 52.3675 20.8383 52.5333C19.9241 52.699 19.0805 53.1348 18.4164 53.7845L18.2473 53.9536C17.7238 54.4777 17.1022 54.8934 16.4179 55.1771C15.7337 55.4607 15.0003 55.6067 14.2595 55.6067C13.5188 55.6067 12.7854 55.4607 12.1012 55.1771C11.4169 54.8934 10.7953 54.4777 10.2718 53.9536C9.74777 53.4302 9.33204 52.8085 9.04839 52.1243C8.76474 51.4401 8.61875 50.7066 8.61875 49.9659C8.61875 49.2252 8.76474 48.4918 9.04839 47.8075C9.33204 47.1233 9.74777 46.5016 10.2718 45.9782L10.4409 45.8091C11.0906 45.1449 11.5264 44.3013 11.6922 43.3871C11.858 42.4729 11.7461 41.53 11.3709 40.68C11.0137 39.8465 10.4205 39.1356 9.6644 38.6349C8.90831 38.1341 8.02231 37.8654 7.11545 37.8618H6.63636C5.14151 37.8618 3.70788 37.268 2.65085 36.211C1.59383 35.1539 1 33.7203 1 32.2255C1 30.7306 1.59383 29.297 2.65085 28.2399C3.70788 27.1829 5.14151 26.5891 6.63636 26.5891H6.89C7.8228 26.5673 8.72747 26.2653 9.48639 25.7225C10.2453 25.1797 10.8234 24.4212 11.1455 23.5455C11.5206 22.6954 11.6325 21.7525 11.4667 20.8383C11.301 19.9241 10.8651 19.0805 10.2155 18.4164L10.0464 18.2473C9.52231 17.7238 9.10658 17.1022 8.82294 16.4179C8.53929 15.7337 8.39329 15.0003 8.39329 14.2595C8.39329 13.5188 8.53929 12.7854 8.82294 12.1012C9.10658 11.4169 9.52231 10.7953 10.0464 10.2718C10.5698 9.74777 11.1915 9.33204 11.8757 9.04839C12.5599 8.76474 13.2934 8.61875 14.0341 8.61875C14.7748 8.61875 15.5082 8.76474 16.1925 9.04839C16.8767 9.33204 17.4984 9.74777 18.0218 10.2718L18.1909 10.4409C18.8551 11.0906 19.6987 11.5264 20.6129 11.6922C21.5271 11.858 22.47 11.7461 23.32 11.3709H23.5455C24.379 11.0137 25.0899 10.4205 25.5906 9.6644C26.0913 8.90831 26.36 8.02231 26.3636 7.11545V6.63636C26.3636 5.14151 26.9575 3.70788 28.0145 2.65085C29.0715 1.59383 30.5051 1 32 1C33.4949 1 34.9285 1.59383 35.9855 2.65085C37.0425 3.70788 37.6364 5.14151 37.6364 6.63636V6.89C37.64 7.79685 37.9087 8.68286 38.4094 9.43895C38.9101 10.195 39.621 10.7882 40.4545 11.1455C41.3046 11.5206 42.2475 11.6325 43.1617 11.4667C44.0759 11.301 44.9194 10.8651 45.5836 10.2155L45.7527 10.0464C46.2762 9.52231 46.8978 9.10658 47.5821 8.82294C48.2663 8.53929 48.9997 8.39329 49.7405 8.39329C50.4812 8.39329 51.2146 8.53929 51.8988 8.82294C52.5831 9.10658 53.2047 9.52231 53.7282 10.0464C54.2522 10.5698 54.668 11.1915 54.9516 11.8757C55.2353 12.5599 55.3813 13.2934 55.3813 14.0341C55.3813 14.7748 55.2353 15.5082 54.9516 16.1925C54.668 16.8767 54.2522 17.4984 53.7282 18.0218L53.5591 18.1909C52.9094 18.8551 52.4736 19.6987 52.3078 20.6129C52.142 21.5271 52.2539 22.47 52.6291 23.32V23.5455C52.9863 24.379 53.5795 25.0899 54.3356 25.5906C55.0917 26.0913 55.9777 26.36 56.8845 26.3636H57.3636C58.8585 26.3636 60.2921 26.9575 61.3491 28.0145C62.4062 29.0715 63 30.5051 63 32C63 33.4949 62.4062 34.9285 61.3491 35.9855C60.2921 37.0425 58.8585 37.6364 57.3636 37.6364H57.11C56.2031 37.64 55.3171 37.9087 54.5611 38.4094C53.805 38.9101 53.2118 39.621 52.8545 40.4545V40.4545Z" stroke="#5F5F5F" stroke-width="2" stroke-linecap="round" stroke-linejoin="round"/>
<path d="M53.173 13.346C56.5823 13.346 59.346 10.5823 59.346 7.17303C59.346 3.76378 56.5823 1 53.173 1C49.7638 1 47 3.76378 47 7.17303C47 10.5823 49.7638 13.346 53.173 13.346Z" fill="#FFC107"/>
<path d="M4 24C5.65685 24 7 22.6569 7 21C7 19.3432 5.65685 18 4 18C2.34315 18 1 19.3432 1 21C1 22.6569 2.34315 24 4 24Z" fill="#FFC107"/>
<path d="M21.778 73.556C23.8645 73.556 25.556 71.8645 25.556 69.778C25.556 67.6915 23.8645 66 21.778 66C19.6915 66 18 67.6915 18 69.778C18 71.8645 19.6915 73.556 21.778 73.556Z" fill="#5F5F5F"/>
<path d="M70.9935 58C67.2712 58 63.9906 55.3587 63.1902 51.7187C62.7303 49.6319 63.1109 47.4913 64.2614 45.6918C65.4125 43.8916 67.1962 42.6478 69.2818 42.1891C69.8509 42.064 70.431 42 71.0087 42C74.7291 42 78.0111 44.642 78.812 48.2813C79.272 50.3681 78.8913 52.5087 77.7402 54.3082C76.5891 56.109 74.8066 57.3528 72.7204 57.8109C72.1525 57.936 71.5712 58 70.9935 58ZM71.0094 42.8363C70.4921 42.8363 69.9723 42.8937 69.4624 43.0053C67.5939 43.4165 65.9969 44.5297 64.9666 46.1426C63.9363 47.7543 63.5959 49.6703 64.007 51.5394C64.7244 54.7987 67.6616 57.1637 70.9941 57.1637C71.5108 57.1637 72.0311 57.1069 72.5411 56.9947C74.4096 56.5842 76.006 55.4709 77.0363 53.8586C78.0666 52.2464 78.4076 50.3297 77.9958 48.4613C77.2784 45.2014 74.34 42.8363 71.0094 42.8363Z" fill="#5F5F5F"/>
<path d="M72.7377 50.3597C74.0442 50.3597 75.1033 49.3005 75.1033 47.994C75.1033 46.6875 74.0442 45.6284 72.7377 45.6284C71.4312 45.6284 70.3721 46.6875 70.3721 47.994C70.3721 49.3005 71.4312 50.3597 72.7377 50.3597Z" fill="#FFC107"/>
</svg>
